<svg xmlns="http://www.w3.org/2000/svg" width="712" height="366" viewBox="20 19 712 366"><defs><marker id="a" stroke-linejoin="miter" stroke-miterlimit="10" color="#34302c" markerHeight="12" markerUnits="strokeWidth" markerWidth="14" orient="auto" overflow="visible" viewBox="-1 -6 14 12"><path fill="currentColor" stroke="currentColor" d="M12 0 0-4v9z"/></marker><marker id="b" stroke-linejoin="miter" stroke-miterlimit="10" color="#34302c" markerHeight="10" markerUnits="strokeWidth" markerWidth="11" orient="auto" overflow="visible" viewBox="-1 -5 11 10"><path fill="currentColor" stroke="currentColor" d="M8 0 0-3v6z"/></marker></defs><path fill="#fff" stroke="#34302c" stroke-linecap="round" stroke-linejoin="round" stroke-width="2" d="M28 25h696l2 4v248c0 3-1 4-2 4H28c-1 0-2-1-2-4V29z"/><path fill="none" stroke="#34302c" stroke-linecap="round" stroke-linejoin="round" stroke-width="2" marker-end="url(#a)" d="M36 63h656"/><circle cx="82" cy="63" r="23" fill="#6cb33e" stroke="#34302c" stroke-linecap="round" stroke-linejoin="round" stroke-width="2"/><circle cx="221" cy="64" r="23" fill="#e6ba31" stroke="#34302c" stroke-linecap="round" stroke-linejoin="round" stroke-width="2"/><circle cx="459" cy="63" r="23" fill="#45b8de" stroke="#34302c" stroke-linecap="round" stroke-linejoin="round" stroke-width="2"/><path fill="#34302c" d="M652 39h1l2 2v44l-2 2h-1l-2-2V41z"/><path fill="none" stroke="#34302c" stroke-dasharray="2 6" stroke-linecap="round" stroke-linejoin="round" stroke-width="2" marker-end="url(#b)" d="M82 86v110"/><path fill="none" stroke="#34302c" stroke-dasharray="2 6" stroke-linecap="round" stroke-linejoin="round" stroke-width="2" marker-end="url(#b)" d="m221 87 1 109"/><path fill="none" stroke="#34302c" stroke-dasharray="2 6" stroke-linecap="round" stroke-linejoin="round" stroke-width="2" marker-end="url(#b)" d="m459 87 1 109"/><path fill="none" stroke="#34302c" stroke-dasharray="2 6" stroke-linecap="round" stroke-linejoin="round" stroke-width="2" marker-end="url(#b)" d="M652 87v110"/><path fill="none" stroke="#34302c" stroke-linecap="round" stroke-linejoin="round" stroke-width="2" marker-end="url(#a)" d="M36 138h387"/><circle cx="152" cy="138" r="23" fill="#ff5a01"/><circle cx="152" cy="138" r="23" fill="none" stroke="#34302c" stroke-linecap="round" stroke-linejoin="round" stroke-width="2"/><circle cx="311" cy="138" r="23" fill="#e739ce" stroke="#34302c" stroke-linecap="round" stroke-linejoin="round" stroke-width="2"/><path fill="#34302c" d="M392 114h1l2 2v44l-2 2h-1l-2-2v-44z"/><path fill="none" stroke="#34302c" stroke-dasharray="2 6" stroke-linecap="round" stroke-linejoin="round" stroke-width="2" marker-end="url(#b)" d="M392 162v34"/><path fill="none" stroke="#34302c" stroke-dasharray="2 6" stroke-linecap="round" stroke-linejoin="round" stroke-width="2" marker-end="url(#b)" d="M311 162v34"/><path fill="none" stroke="#34302c" stroke-dasharray="2 6" stroke-linecap="round" stroke-linejoin="round" stroke-width="2" marker-end="url(#b)" d="M152 162v34"/><path fill="none" stroke="#34302c" stroke-linecap="round" stroke-linejoin="round" stroke-width="2" marker-end="url(#a)" d="M27 355h672"/><circle cx="150" cy="355" r="23" fill="#6cb33e" stroke="#34302c" stroke-linecap="round" stroke-linejoin="round" stroke-width="2"/><circle cx="222" cy="356" r="23" fill="#e6ba31" stroke="#34302c" stroke-linecap="round" stroke-linejoin="round" stroke-width="2"/><circle cx="460" cy="355" r="23" fill="#45b8de" stroke="#34302c" stroke-linecap="round" stroke-linejoin="round" stroke-width="2"/><path fill="#34302c" d="M652 331c2 0 2 1 2 2v44c0 1 0 2-2 2l-2-2v-44z"/><path fill="none" stroke="#34302c" stroke-dasharray="2 6" stroke-linecap="round" stroke-linejoin="round" stroke-width="2" marker-end="url(#b)" d="M150 283v28"/><path fill="none" stroke="#34302c" stroke-dasharray="2 6" stroke-linecap="round" stroke-linejoin="round" stroke-width="2" marker-end="url(#b)" d="M222 283v29"/><path fill="none" stroke="#34302c" stroke-dasharray="2 6" stroke-linecap="round" stroke-linejoin="round" stroke-width="2" marker-end="url(#b)" d="M460 283v28"/><path fill="none" stroke="#34302c" stroke-dasharray="2 6" stroke-linecap="round" stroke-linejoin="round" stroke-width="2" marker-end="url(#b)" d="M652 283v28"/><circle cx="316" cy="355" r="23" fill="#ff5a01" stroke="#34302c" stroke-linecap="round" stroke-linejoin="round" stroke-width="2"/><circle cx="392" cy="355" r="23" fill="#e739ce" stroke="#34302c" stroke-linecap="round" stroke-linejoin="round" stroke-width="2"/><path fill="none" stroke="#34302c" stroke-dasharray="2 6" stroke-linecap="round" stroke-linejoin="round" stroke-width="2" marker-end="url(#b)" d="M392 283v28"/><path fill="none" stroke="#34302c" stroke-dasharray="2 6" stroke-linecap="round" stroke-linejoin="round" stroke-width="2" marker-end="url(#b)" d="M316 283v28"/><text x="131" y="344" fill="#fff"><tspan x="145" y="360" font-family="Tahoma,'Nimbus Sans L'" font-size="16" font-weight="700">1</tspan></text><text x="298" y="344" fill="#fff"><tspan x="312" y="360" font-family="Tahoma,'Nimbus Sans L'" font-size="16" font-weight="700">3</tspan></text><text x="441" y="344" fill="#fff"><tspan x="455" y="360" font-family="Tahoma,'Nimbus Sans L'" font-size="16" font-weight="700">5</tspan></text><text x="203" y="345" fill="#fff"><tspan x="217" y="361" font-family="Tahoma,'Nimbus Sans L'" font-size="16" font-weight="700">2</tspan></text><text x="373" y="344" fill="#fff"><tspan x="387" y="360" font-family="Tahoma,'Nimbus Sans L'" font-size="16" font-weight="700">4</tspan></text><path fill="none" stroke="#34302c" stroke-linecap="round" stroke-linejoin="round" stroke-width="2" d="M36 221h655"/><text x="63" y="52" fill="#fff"><tspan x="77" y="68" font-family="Tahoma,'Nimbus Sans L'" font-size="16" font-weight="700">1</tspan></text><text x="133" y="128" fill="#fff"><tspan x="147" y="144" font-family="Tahoma,'Nimbus Sans L'" font-size="16" font-weight="700">3</tspan></text><text x="440" y="52" fill="#fff"><tspan x="454" y="68" font-family="Tahoma,'Nimbus Sans L'" font-size="16" font-weight="700">5</tspan></text><text x="203" y="53" fill="#fff"><tspan x="217" y="69" font-family="Tahoma,'Nimbus Sans L'" font-size="16" font-weight="700">2</tspan></text><text x="292" y="127" fill="#fff"><tspan x="306" y="143" font-family="Tahoma,'Nimbus Sans L'" font-size="16" font-weight="700">4</tspan></text><circle cx="579" cy="63" r="23" fill="#ff5a01" stroke="#34302c" stroke-linecap="round" stroke-linejoin="round" stroke-width="2"/><text x="560" y="52" fill="#fff"><tspan x="574" y="68" font-family="Tahoma,'Nimbus Sans L'" font-size="16" font-weight="700">0</tspan></text><circle cx="580" cy="355" r="23" fill="#ff5a01" stroke="#34302c" stroke-linecap="round" stroke-linejoin="round" stroke-width="2"/><path fill="none" stroke="#34302c" stroke-dasharray="2 6" stroke-linecap="round" stroke-linejoin="round" stroke-width="2" marker-end="url(#b)" d="M580 283v28"/><text x="561" y="344" fill="#fff"><tspan x="575" y="360" font-family="Tahoma,'Nimbus Sans L'" font-size="16" font-weight="700">0</tspan></text><path fill="none" stroke="#34302c" stroke-dasharray="2 6" stroke-linecap="round" stroke-linejoin="round" stroke-width="2" marker-end="url(#b)" d="m579 87 1 109"/><text x="8.38" y="236" fill="#34302c"><tspan x="259.38" y="258" font-family="Tahoma, 'Nimbus Sans L'" font-size="24" font-weight="700">mergeComparing</tspan></text></svg>