<svg xmlns="http://www.w3.org/2000/svg" width="712" height="350.02" viewBox="20 19 712 350.02"><defs><marker id="a" stroke-linejoin="miter" stroke-miterlimit="10" color="#34302c" markerHeight="12" markerUnits="strokeWidth" markerWidth="14" orient="auto" overflow="visible" viewBox="-1 -6 14 12"><path fill="currentColor" stroke="currentColor" d="M12 0 0-4v9z"/></marker><marker id="b" stroke-linejoin="miter" stroke-miterlimit="10" color="#34302c" markerHeight="10" markerUnits="strokeWidth" markerWidth="11" orient="auto" overflow="visible" viewBox="-1 -5 11 10"><path fill="currentColor" stroke="currentColor" d="M8 0 0-3v6z"/></marker><marker id="c" orient="auto" overflow="visible" refX="0" refY="0"><path fill-rule="evenodd" stroke="#000" stroke-linejoin="round" d="M-11-4 1 0l-12 4c2-2 2-6 0-8z"/></marker></defs><path fill="#fff" stroke="#34302c" stroke-linecap="round" stroke-linejoin="round" stroke-width="2" d="M28 88.58h696l2 2.77v171.88c0 2.08-1 2.77-2 2.77H28c-1 0-2-.7-2-2.77V91.35z"/><path fill="none" stroke="#34302c" stroke-linecap="round" stroke-linejoin="round" stroke-width="2" marker-end="url(#a)" d="M36 48h656"/><circle cx="82" cy="48" r="23" fill="#6cb33e" stroke="#34302c" stroke-linecap="round" stroke-linejoin="round" stroke-width="2"/><circle cx="221" cy="49" r="23" fill="#e6ba31" stroke="#34302c" stroke-linecap="round" stroke-linejoin="round" stroke-width="2"/><circle cx="306.02" cy="48" r="23" fill="#45b8de" stroke="#34302c" stroke-linecap="round" stroke-linejoin="round" stroke-width="2"/><path fill="#34302c" d="M652 24h1l2 2v44l-2 2h-1l-2-2V26z"/><path fill="none" stroke="#34302c" stroke-dasharray="2 6" stroke-linecap="round" stroke-linejoin="round" stroke-width="2" marker-end="url(#b)" d="M82 71v110"/><path fill="none" stroke="#34302c" stroke-dasharray="2 6" stroke-linecap="round" stroke-linejoin="round" stroke-width="2" marker-end="url(#b)" d="m221 72 1 109"/><path fill="none" stroke="#34302c" stroke-dasharray="2 6" stroke-linecap="round" stroke-linejoin="round" stroke-width="2" marker-end="url(#b)" d="m306.02 72 1 109"/><path fill="none" stroke="#34302c" stroke-dasharray="2 6" stroke-linecap="round" stroke-linejoin="round" stroke-width="2" marker-end="url(#b)" d="M652 72v110"/><path fill="none" stroke="#34302c" stroke-linecap="round" stroke-linejoin="round" stroke-width="2" marker-end="url(#a)" d="M36.28 122.7h493.74"/><circle cx="152" cy="123" r="23" fill="#ff5a01" stroke="#34302c" stroke-linecap="round" stroke-linejoin="round" stroke-width="2"/><circle cx="454.03" cy="123" r="23" fill="#e739ce" stroke="#34302c" stroke-linecap="round" stroke-linejoin="round" stroke-width="2"/><path fill="#34302c" d="M515.23 99h1l2 2v44l-2 2h-1l-2-2v-44z"/><path fill="none" stroke="#34302c" stroke-dasharray="2 6" stroke-linecap="round" stroke-linejoin="round" stroke-width="2" marker-end="url(#b)" d="M515.23 147v34"/><path fill="none" stroke="#34302c" stroke-dasharray="2 6" stroke-linecap="round" stroke-linejoin="round" stroke-width="2" marker-end="url(#b)" d="M454.03 147v34"/><path fill="none" stroke="#34302c" stroke-dasharray="2 6" stroke-linecap="round" stroke-linejoin="round" stroke-width="2" marker-end="url(#b)" d="M152 147v34"/><path fill="none" stroke="#34302c" stroke-linecap="round" stroke-linejoin="round" stroke-width="2" marker-end="url(#a)" d="M27 340h672"/><circle cx="150" cy="336.77" r="23" fill="#6cb33e" stroke="#34302c" stroke-linecap="round" stroke-linejoin="round" stroke-width="2"/><circle cx="223.24" cy="338.53" r="23" fill="#e6ba31" stroke="#34302c" stroke-linecap="round" stroke-linejoin="round" stroke-width="2"/><circle cx="453.78" cy="340.02" r="23" fill="#45b8de" stroke="#34302c" stroke-linecap="round" stroke-linejoin="round" stroke-width="2"/><path fill="#34302c" d="M652 316c2 0 2 1 2 2v44c0 1 0 2-2 2l-2-2v-44z"/><path fill="none" stroke="#34302c" stroke-dasharray="2 6" stroke-linecap="round" stroke-linejoin="round" stroke-width="2" marker-end="url(#b)" d="M150 268v28"/><path fill="none" stroke="#34302c" stroke-dasharray="2 6" stroke-linecap="round" stroke-linejoin="round" stroke-width="2" marker-end="url(#b)" d="M222 268v29"/><path fill="none" stroke="#34302c" stroke-dasharray="2 6" stroke-linecap="round" stroke-linejoin="round" stroke-width="2" marker-end="url(#b)" d="M515.23 267.42v28"/><path fill="none" stroke="#34302c" stroke-dasharray="2 6" stroke-linecap="round" stroke-linejoin="round" stroke-width="2" marker-end="url(#b)" d="M652 268v28"/><circle cx="307.02" cy="336.69" r="23" fill="#ff5a01" stroke="#34302c" stroke-linecap="round" stroke-linejoin="round" stroke-width="2"/><circle cx="515.61" cy="339.26" r="23" fill="#e739ce" stroke="#34302c" stroke-linecap="round" stroke-linejoin="round" stroke-width="2"/><path fill="none" stroke="#34302c" stroke-dasharray="2 6" stroke-linecap="round" stroke-linejoin="round" stroke-width="2" marker-end="url(#b)" d="M454.03 268v28"/><path fill="none" stroke="#34302c" stroke-dasharray="2 6" stroke-linecap="round" stroke-linejoin="round" stroke-width="2" marker-end="url(#b)" d="M307.02 268v28"/><text x="131" y="325.77" fill="#fff"><tspan x="145" y="341.77" font-family="Tahoma,'Nimbus Sans L'" font-size="16" font-weight="700">5</tspan></text><text x="287.89" y="325.69" fill="#fff"><tspan x="301.89" y="341.69" font-family="Tahoma,'Nimbus Sans L'" font-size="16" font-weight="700">3</tspan></text><text x="434.78" y="329.02" fill="#fff"><tspan x="448.78" y="345.02" font-family="Tahoma,'Nimbus Sans L'" font-size="16" font-weight="700">2</tspan></text><text x="204.24" y="327.53" fill="#fff"><tspan x="218.24" y="343.53" font-family="Tahoma,'Nimbus Sans L'" font-size="16" font-weight="700">4</tspan></text><text x="496.61" y="328.26" fill="#fff"><tspan x="510.61" y="344.26" font-family="Tahoma,'Nimbus Sans L'" font-size="16" font-weight="700">1</tspan></text><path fill="none" stroke="#34302c" stroke-linecap="round" stroke-linejoin="round" stroke-width="2" d="M36 206h655"/><text x="63" y="37" fill="#fff"><tspan x="77" y="53" font-family="Tahoma,'Nimbus Sans L'" font-size="16" font-weight="700">5</tspan></text><text x="133" y="113" fill="#fff"><tspan x="147" y="129" font-family="Tahoma,'Nimbus Sans L'" font-size="16" font-weight="700">3</tspan></text><text x="287.02" y="37" fill="#fff"><tspan x="301.02" y="53" font-family="Tahoma,'Nimbus Sans L'" font-size="16" font-weight="700">2</tspan></text><text x="203" y="38" fill="#fff"><tspan x="217" y="54" font-family="Tahoma,'Nimbus Sans L'" font-size="16" font-weight="700">4</tspan></text><text x="433.78" y="112" fill="#fff"><tspan x="447.78" y="128" font-family="Tahoma,'Nimbus Sans L'" font-size="16" font-weight="700">1</tspan></text><circle cx="579" cy="48" r="23" fill="#ff5a01" stroke="#34302c" stroke-linecap="round" stroke-linejoin="round" stroke-width="2"/><text x="560" y="37" fill="#fff"><tspan x="574" y="53" font-family="Tahoma,'Nimbus Sans L'" font-size="16" font-weight="700">0</tspan></text><circle cx="580" cy="338.77" r="23" fill="#ff5a01" stroke="#34302c" stroke-linecap="round" stroke-linejoin="round" stroke-width="2"/><path fill="none" stroke="#34302c" stroke-dasharray="2 6" stroke-linecap="round" stroke-linejoin="round" stroke-width="2" marker-end="url(#b)" d="M580 268v28"/><text x="561" y="327.77" fill="#fff"><tspan x="575" y="343.77" font-family="Tahoma,'Nimbus Sans L'" font-size="16" font-weight="700">0</tspan></text><path fill="none" stroke="#34302c" stroke-dasharray="2 6" stroke-linecap="round" stroke-linejoin="round" stroke-width="2" marker-end="url(#b)" d="m579 72 1 109"/><circle cx="413.41" cy="234" r="23" fill="#fff" stroke="#34302c" stroke-linecap="round" stroke-linejoin="round" stroke-width="2"/><circle cx="473.41" cy="234" r="23" fill="#fff" stroke="#34302c" stroke-linecap="round" stroke-linejoin="round" stroke-width="2"/><circle cx="587.41" cy="234" r="23" fill="#fff" stroke="#34302c" stroke-linecap="round" stroke-linejoin="round" stroke-width="2"/><text x="-152.58" y="221" fill="#34302c"><tspan x="98.42" y="243" font-family="Tahoma, 'Nimbus Sans L'" font-size="24" font-weight="700">mergeComparingWith(</tspan></text><text x="381.41" y="223"><tspan x="395.41" y="239" font-family="Tahoma, 'Nimbus Sans L'" font-size="16" font-weight="400">small</tspan></text><text x="446.41" y="223"><tspan x="460.41" y="239" font-family="Tahoma, 'Nimbus Sans L'" font-size="16" font-weight="700">big</tspan></text><text x="383.41" y="226" fill="#34302c"><tspan x="439.41" y="248" font-family="Tahoma, 'Nimbus Sans L'" font-size="24" font-weight="400">,</tspan></text><text x="115.41" y="222" fill="#34302c"><tspan x="375.41" y="244" font-family="Tahoma, 'Nimbus Sans L'" font-size="24" font-weight="400">(</tspan></text><text x="239.41" y="222" fill="#34302c"><tspan x="499.41" y="244" font-family="Tahoma, 'Nimbus Sans L'" font-size="24" font-weight="400">)</tspan></text><path fill="none" stroke="#000" marker-end="url(#c)" d="M516.41 236h39"/><text x="366.41" y="221" fill="#34302c"><tspan x="617.41" y="243" font-family="Tahoma, 'Nimbus Sans L'" font-size="24" font-weight="700">)</tspan></text><text x="559.58" y="223"><tspan x="573.58" y="239" font-family="Tahoma, 'Nimbus Sans L'" font-size="16" font-weight="700">big</tspan></text></svg>